<svg width="97" height="46" viewBox="0 0 97 46" fill="none" xmlns="http://www.w3.org/2000/svg">
<path d="M65.0342 21.7889L15.736 22.8422V23.4793L65.0058 24.4475C66.425 24.4758 67.5666 25.6112 67.6486 27.0492L68.2888 38.0145H69.0394L70.0139 26.9136C70.1242 25.5291 71.2091 24.4506 72.5462 24.3938L87.0121 23.618V22.7886L72.5179 21.874C71.1839 21.792 70.1242 20.7387 69.9855 19.3543L69.1498 9.80181H68.2604L67.677 19.1871C67.5666 20.6283 66.425 21.7605 65.0342 21.7889Z" fill="white"/>
<path d="M18.1468 33.0979V32.5821C18.1468 32.2834 18.196 32.0357 18.2942 31.8393C18.3924 31.6387 18.5336 31.475 18.7178 31.3481C18.9061 31.2171 19.1353 31.1107 19.4054 31.0288L19.8168 30.8999C19.9682 30.8508 20.0951 30.7914 20.1974 30.7219C20.2998 30.6482 20.3775 30.5602 20.4307 30.4579C20.4881 30.3555 20.5167 30.2389 20.5167 30.1079V30.0834C20.5167 29.8787 20.4471 29.717 20.308 29.5983C20.1688 29.4755 19.9785 29.4141 19.737 29.4141C19.4996 29.4141 19.3072 29.4796 19.1599 29.6106C19.0166 29.7375 18.945 29.9217 18.945 30.1632V30.2737H18.1591V30.1754C18.1591 29.8644 18.2287 29.6004 18.3679 29.3834C18.507 29.1665 18.6953 29.0007 18.9327 28.8861C19.1742 28.7715 19.4423 28.7142 19.737 28.7142C20.0317 28.7142 20.2977 28.7715 20.5351 28.8861C20.7725 28.9967 20.9587 29.1542 21.0938 29.3589C21.233 29.5594 21.3026 29.7968 21.3026 30.0711V30.1325C21.3026 30.4067 21.2453 30.64 21.1307 30.8324C21.0201 31.0207 20.8687 31.1762 20.6763 31.299C20.484 31.4177 20.265 31.5159 20.0194 31.5937L19.6265 31.7165C19.4505 31.7697 19.3134 31.829 19.2151 31.8945C19.1169 31.9559 19.0473 32.0255 19.0064 32.1033C18.9695 32.1769 18.9511 32.267 18.9511 32.3734V32.398H21.2657V33.0979H18.1468Z" fill="white"/>
<path d="M23.5235 33.1838C23.016 33.1838 22.6087 33.0447 22.3018 32.7663C21.9948 32.4839 21.8413 32.0582 21.8413 31.4893V30.4087C21.8413 29.8562 21.9948 29.4367 22.3018 29.1501C22.6087 28.8595 23.016 28.7142 23.5235 28.7142C24.0352 28.7142 24.4424 28.8595 24.7453 29.1501C25.0523 29.4367 25.2058 29.8562 25.2058 30.4087V31.4893C25.2058 32.0582 25.0523 32.4839 24.7453 32.7663C24.4424 33.0447 24.0352 33.1838 23.5235 33.1838ZM23.5235 32.4839C23.8305 32.4839 24.0556 32.4 24.1989 32.2322C24.3462 32.0644 24.4199 31.8249 24.4199 31.5139V30.3719C24.4199 30.0567 24.3381 29.8194 24.1743 29.6597C24.0147 29.496 23.7978 29.4141 23.5235 29.4141C23.2411 29.4141 23.0201 29.498 22.8605 29.6659C22.7049 29.8337 22.6272 30.069 22.6272 30.3719V31.5139C22.6272 31.8372 22.7008 32.0807 22.8482 32.2445C22.9996 32.4041 23.2247 32.4839 23.5235 32.4839Z" fill="white"/>
<path d="M25.7733 33.0979V32.5821C25.7733 32.2834 25.8224 32.0357 25.9206 31.8393C26.0189 31.6387 26.1601 31.475 26.3443 31.3481C26.5325 31.2171 26.7618 31.1107 27.0319 31.0288L27.4432 30.8999C27.5947 30.8508 27.7216 30.7914 27.8239 30.7219C27.9262 30.6482 28.004 30.5602 28.0572 30.4579C28.1145 30.3555 28.1432 30.2389 28.1432 30.1079V30.0834C28.1432 29.8787 28.0736 29.717 27.9344 29.5983C27.7952 29.4755 27.6049 29.4141 27.3634 29.4141C27.126 29.4141 26.9337 29.4796 26.7863 29.6106C26.6431 29.7375 26.5714 29.9217 26.5714 30.1632V30.2737H25.7856V30.1754C25.7856 29.8644 25.8552 29.6004 25.9943 29.3834C26.1335 29.1665 26.3218 29.0007 26.5592 28.8861C26.8006 28.7715 27.0687 28.7142 27.3634 28.7142C27.6581 28.7142 27.9242 28.7715 28.1616 28.8861C28.399 28.9967 28.5852 29.1542 28.7203 29.3589C28.8594 29.5594 28.929 29.7968 28.929 30.0711V30.1325C28.929 30.4067 28.8717 30.64 28.7571 30.8324C28.6466 31.0207 28.4952 31.1762 28.3028 31.299C28.1104 31.4177 27.8914 31.5159 27.6459 31.5937L27.2529 31.7165C27.0769 31.7697 26.9398 31.829 26.8416 31.8945C26.7433 31.9559 26.6738 32.0255 26.6328 32.1033C26.596 32.1769 26.5776 32.267 26.5776 32.3734V32.398H28.8922V33.0979H25.7733Z" fill="white"/>
<path d="M31.3305 33.0979V32.226H29.2185V31.3174L30.7043 28.8002H32.1163V31.5261H32.8285V32.226H32.1163V33.0979H31.3305ZM29.9675 31.5261H31.3305V29.3036H31.22L29.9675 31.4279V31.5261Z" fill="white"/>
<path d="M35.2498 33.1838C35.0861 33.1838 34.9469 33.1306 34.8323 33.0242C34.7218 32.9137 34.6666 32.7725 34.6666 32.6006C34.6666 32.4287 34.7218 32.2895 34.8323 32.1831C34.9469 32.0726 35.0861 32.0173 35.2498 32.0173C35.4176 32.0173 35.5568 32.0726 35.6673 32.1831C35.7778 32.2895 35.8331 32.4287 35.8331 32.6006C35.8331 32.7725 35.7778 32.9137 35.6673 33.0242C35.5568 33.1306 35.4176 33.1838 35.2498 33.1838Z" fill="white"/>
<path d="M37.8191 33.0979V32.3857H38.3839V29.5124H37.8191V28.8002H39.5873C40.1644 28.8002 40.6024 28.9475 40.9012 29.2422C41.204 29.5328 41.3555 29.9667 41.3555 30.5438V31.3542C41.3555 31.9314 41.204 32.3673 40.9012 32.662C40.6024 32.9526 40.1644 33.0979 39.5873 33.0979H37.8191ZM39.1944 32.3611H39.5996C39.927 32.3611 40.1665 32.2752 40.3179 32.1033C40.4693 31.9314 40.5451 31.6899 40.5451 31.3788V30.5193C40.5451 30.2041 40.4693 29.9626 40.3179 29.7948C40.1665 29.6229 39.927 29.5369 39.5996 29.5369H39.1944V32.3611Z" fill="white"/>
<path d="M43.443 33.1838C43.1401 33.1838 42.872 33.1204 42.6387 32.9935C42.4095 32.8625 42.2294 32.6804 42.0985 32.4471C41.9716 32.2097 41.9081 31.9314 41.9081 31.6121V31.5384C41.9081 31.2192 41.9716 30.9429 42.0985 30.7096C42.2253 30.4722 42.4034 30.29 42.6326 30.1632C42.8618 30.0322 43.1279 29.9667 43.4307 29.9667C43.7295 29.9667 43.9894 30.0342 44.2105 30.1693C44.4315 30.3003 44.6034 30.4845 44.7262 30.7219C44.849 30.9552 44.9104 31.2274 44.9104 31.5384V31.8024H42.694C42.7022 32.0112 42.7799 32.181 42.9273 32.312C43.0746 32.443 43.2547 32.5085 43.4676 32.5085C43.6845 32.5085 43.8441 32.4614 43.9465 32.3673C44.0488 32.2731 44.1266 32.1687 44.1798 32.0541L44.8121 32.3857C44.7548 32.4921 44.6709 32.6087 44.5604 32.7356C44.454 32.8584 44.3107 32.9648 44.1306 33.0549C43.9506 33.1408 43.7213 33.1838 43.443 33.1838ZM42.7001 31.2253H44.1245C44.1081 31.0493 44.0365 30.9081 43.9096 30.8017C43.7868 30.6953 43.6252 30.642 43.4246 30.642C43.2159 30.642 43.0501 30.6953 42.9273 30.8017C42.8045 30.9081 42.7288 31.0493 42.7001 31.2253Z" fill="white"/>
<path d="M46.8637 33.1838C46.4666 33.1838 46.1412 33.0979 45.8875 32.926C45.6337 32.754 45.4802 32.5085 45.427 32.1892L46.1392 32.005C46.1678 32.1483 46.2149 32.2608 46.2804 32.3427C46.35 32.4246 46.4339 32.4839 46.5321 32.5207C46.6344 32.5535 46.745 32.5699 46.8637 32.5699C47.0437 32.5699 47.1768 32.5392 47.2627 32.4778C47.3487 32.4123 47.3917 32.3325 47.3917 32.2383C47.3917 32.1442 47.3507 32.0726 47.2689 32.0234C47.187 31.9702 47.056 31.9273 46.8759 31.8945L46.704 31.8638C46.4912 31.8229 46.2968 31.7676 46.1208 31.698C45.9448 31.6244 45.8036 31.5241 45.6971 31.3972C45.5907 31.2703 45.5375 31.1066 45.5375 30.906C45.5375 30.6032 45.648 30.3719 45.869 30.2123C46.0901 30.0486 46.3807 29.9667 46.7409 29.9667C47.0806 29.9667 47.363 30.0424 47.5881 30.1939C47.8132 30.3453 47.9606 30.5438 48.0302 30.7894L47.3118 31.0104C47.2791 30.8549 47.2116 30.7444 47.1092 30.6789C47.011 30.6134 46.8882 30.5807 46.7409 30.5807C46.5935 30.5807 46.4809 30.6073 46.4032 30.6605C46.3254 30.7096 46.2865 30.7792 46.2865 30.8692C46.2865 30.9674 46.3275 31.0411 46.4093 31.0902C46.4912 31.1353 46.6017 31.17 46.7409 31.1946L46.9128 31.2253C47.142 31.2662 47.3487 31.3215 47.5329 31.3911C47.7211 31.4566 47.8685 31.5527 47.9749 31.6796C48.0854 31.8024 48.1407 31.9702 48.1407 32.1831C48.1407 32.5023 48.024 32.75 47.7907 32.926C47.5615 33.0979 47.2525 33.1838 46.8637 33.1838Z" fill="white"/>
<path d="M48.8186 33.0979V30.0527H49.5921V33.0979H48.8186ZM49.2054 29.6966C49.0662 29.6966 48.9475 29.6515 48.8493 29.5615C48.7551 29.4714 48.7081 29.3527 48.7081 29.2054C48.7081 29.058 48.7551 28.9394 48.8493 28.8493C48.9475 28.7593 49.0662 28.7142 49.2054 28.7142C49.3486 28.7142 49.4673 28.7593 49.5614 28.8493C49.6556 28.9394 49.7027 29.058 49.7027 29.2054C49.7027 29.3527 49.6556 29.4714 49.5614 29.5615C49.4673 29.6515 49.3486 29.6966 49.2054 29.6966Z" fill="white"/>
<path d="M50.302 31.5875V31.4893C50.302 31.17 50.3655 30.8979 50.4924 30.6727C50.6192 30.4435 50.7871 30.2696 50.9958 30.1509C51.2086 30.0281 51.4399 29.9667 51.6896 29.9667C51.9679 29.9667 52.1787 30.0158 52.3219 30.114C52.4652 30.2123 52.5696 30.3146 52.6351 30.421H52.7456V30.0527H53.5069V33.6381C53.5069 33.8469 53.4455 34.0127 53.3227 34.1354C53.1999 34.2623 53.0362 34.3258 52.8315 34.3258H50.7932V33.6504H52.5614C52.676 33.6504 52.7333 33.589 52.7333 33.4662V32.6742H52.6228C52.5818 32.7397 52.5245 32.8073 52.4509 32.8768C52.3772 32.9423 52.279 32.9976 52.1562 33.0426C52.0334 33.0876 51.8778 33.1101 51.6896 33.1101C51.4399 33.1101 51.2086 33.0508 50.9958 32.9321C50.7871 32.8093 50.6192 32.6354 50.4924 32.4102C50.3655 32.181 50.302 31.9068 50.302 31.5875ZM51.9106 32.4348C52.148 32.4348 52.3465 32.3591 52.5061 32.2076C52.6657 32.0562 52.7456 31.8434 52.7456 31.5691V31.5077C52.7456 31.2294 52.6657 31.0166 52.5061 30.8692C52.3506 30.7178 52.1521 30.642 51.9106 30.642C51.6732 30.642 51.4747 30.7178 51.3151 30.8692C51.1554 31.0166 51.0756 31.2294 51.0756 31.5077V31.5691C51.0756 31.8434 51.1554 32.0562 51.3151 32.2076C51.4747 32.3591 51.6732 32.4348 51.9106 32.4348Z" fill="white"/>
<path d="M54.3645 33.0979V30.0527H55.1258V30.4517H55.2363C55.2855 30.3453 55.3776 30.245 55.5126 30.1509C55.6477 30.0527 55.8523 30.0035 56.1266 30.0035C56.364 30.0035 56.5707 30.0588 56.7467 30.1693C56.9268 30.2757 57.0659 30.4251 57.1642 30.6175C57.2624 30.8058 57.3115 31.0268 57.3115 31.2806V33.0979H56.5379V31.342C56.5379 31.1127 56.4806 30.9408 56.366 30.8262C56.2555 30.7116 56.0959 30.6543 55.8871 30.6543C55.6497 30.6543 55.4656 30.7341 55.3346 30.8938C55.2036 31.0493 55.1381 31.2683 55.1381 31.5507V33.0979H54.3645Z" fill="white"/>
<path d="M19.4853 18.2533C19.2847 18.2533 19.121 18.1919 18.9941 18.0691C18.8713 17.9422 18.8099 17.7744 18.8099 17.5657V15.8466H18.0486V15.2081H18.8099V14.2626H19.5835V15.2081H20.4185V15.8466H19.5835V17.4306C19.5835 17.5534 19.6408 17.6148 19.7554 17.6148H20.3448V18.2533H19.4853Z" fill="white"/>
<path d="M21.1187 18.2533V13.9556H21.8923V15.5826H22.0028C22.0355 15.5171 22.0867 15.4516 22.1563 15.3861C22.2259 15.3206 22.318 15.2674 22.4326 15.2265C22.5513 15.1815 22.7007 15.159 22.8808 15.159C23.1182 15.159 23.3249 15.2142 23.5009 15.3247C23.6809 15.4311 23.8201 15.5805 23.9183 15.7729C24.0166 15.9612 24.0657 16.1822 24.0657 16.436V18.2533H23.2921V16.4974C23.2921 16.2682 23.2348 16.0963 23.1202 15.9817C23.0097 15.8671 22.8501 15.8098 22.6413 15.8098C22.4039 15.8098 22.2197 15.8896 22.0888 16.0492C21.9578 16.2047 21.8923 16.4237 21.8923 16.7061V18.2533H21.1187Z" fill="white"/>
<path d="M26.2895 18.3392C25.9866 18.3392 25.7185 18.2758 25.4852 18.1489C25.256 18.0179 25.0759 17.8358 24.9449 17.6025C24.8181 17.3651 24.7546 17.0868 24.7546 16.7675V16.6938C24.7546 16.3746 24.8181 16.0983 24.9449 15.865C25.0718 15.6276 25.2499 15.4455 25.4791 15.3186C25.7083 15.1876 25.9743 15.1221 26.2772 15.1221C26.576 15.1221 26.8359 15.1897 27.0569 15.3247C27.278 15.4557 27.4499 15.6399 27.5727 15.8773C27.6954 16.1106 27.7568 16.3828 27.7568 16.6938V16.9578H25.5405C25.5487 17.1666 25.6264 17.3365 25.7738 17.4674C25.9211 17.5984 26.1012 17.6639 26.3141 17.6639C26.531 17.6639 26.6906 17.6168 26.7929 17.5227C26.8953 17.4285 26.973 17.3242 27.0262 17.2096L27.6586 17.5411C27.6013 17.6475 27.5174 17.7642 27.4069 17.8911C27.3005 18.0138 27.1572 18.1203 26.9771 18.2103C26.797 18.2963 26.5678 18.3392 26.2895 18.3392ZM25.5466 16.3807H26.971C26.9546 16.2047 26.883 16.0635 26.7561 15.9571C26.6333 15.8507 26.4716 15.7975 26.2711 15.7975C26.0623 15.7975 25.8966 15.8507 25.7738 15.9571C25.651 16.0635 25.5753 16.2047 25.5466 16.3807Z" fill="white"/>
<path d="M28.4454 18.2533V13.9556H29.219V15.5826H29.3295C29.3622 15.5171 29.4134 15.4516 29.483 15.3861C29.5525 15.3206 29.6446 15.2674 29.7592 15.2265C29.8779 15.1815 30.0273 15.159 30.2074 15.159C30.4448 15.159 30.6515 15.2142 30.8275 15.3247C31.0076 15.4311 31.1468 15.5805 31.245 15.7729C31.3432 15.9612 31.3924 16.1822 31.3924 16.436V18.2533H30.6188V16.4974C30.6188 16.2682 30.5615 16.0963 30.4469 15.9817C30.3364 15.8671 30.1767 15.8098 29.968 15.8098C29.7306 15.8098 29.5464 15.8896 29.4154 16.0492C29.2845 16.2047 29.219 16.4237 29.219 16.7061V18.2533H28.4454Z" fill="white"/>
<path d="M33.6162 18.3392C33.3133 18.3392 33.0452 18.2758 32.8119 18.1489C32.5827 18.0179 32.4026 17.8358 32.2716 17.6025C32.1447 17.3651 32.0813 17.0868 32.0813 16.7675V16.6938C32.0813 16.3746 32.1447 16.0983 32.2716 15.865C32.3985 15.6276 32.5765 15.4455 32.8057 15.3186C33.035 15.1876 33.301 15.1221 33.6039 15.1221C33.9027 15.1221 34.1626 15.1897 34.3836 15.3247C34.6046 15.4557 34.7765 15.6399 34.8993 15.8773C35.0221 16.1106 35.0835 16.3828 35.0835 16.6938V16.9578H32.8671C32.8753 17.1666 32.9531 17.3365 33.1004 17.4674C33.2478 17.5984 33.4279 17.6639 33.6407 17.6639C33.8577 17.6639 34.0173 17.6168 34.1196 17.5227C34.2219 17.4285 34.2997 17.3242 34.3529 17.2096L34.9853 17.5411C34.928 17.6475 34.8441 17.7642 34.7336 17.8911C34.6271 18.0138 34.4839 18.1203 34.3038 18.2103C34.1237 18.2963 33.8945 18.3392 33.6162 18.3392ZM32.8733 16.3807H34.2977C34.2813 16.2047 34.2097 16.0635 34.0828 15.9571C33.96 15.8507 33.7983 15.7975 33.5977 15.7975C33.389 15.7975 33.2232 15.8507 33.1004 15.9571C32.9777 16.0635 32.9019 16.2047 32.8733 16.3807Z" fill="white"/>
<path d="M37.2026 18.3392C36.9079 18.3392 36.6398 18.2778 36.3983 18.1551C36.1609 18.0323 35.9726 17.8542 35.8334 17.6209C35.6943 17.3876 35.6247 17.1052 35.6247 16.7737V16.6877C35.6247 16.3562 35.6943 16.0738 35.8334 15.8405C35.9726 15.6072 36.1609 15.4291 36.3983 15.3063C36.6398 15.1835 36.9079 15.1221 37.2026 15.1221C37.4932 15.1221 37.7428 15.1733 37.9516 15.2756C38.1603 15.3779 38.3281 15.5191 38.455 15.6992C38.586 15.8752 38.672 16.0758 38.7129 16.3009L37.9639 16.4605C37.9475 16.3378 37.9107 16.2272 37.8534 16.129C37.7961 16.0308 37.7142 15.953 37.6078 15.8957C37.5054 15.8384 37.3765 15.8098 37.221 15.8098C37.0654 15.8098 36.9242 15.8445 36.7974 15.9141C36.6746 15.9796 36.5763 16.0799 36.5027 16.215C36.4331 16.3459 36.3983 16.5076 36.3983 16.7V16.7614C36.3983 16.9538 36.4331 17.1175 36.5027 17.2525C36.5763 17.3835 36.6746 17.4838 36.7974 17.5534C36.9242 17.6189 37.0654 17.6516 37.221 17.6516C37.4543 17.6516 37.6303 17.5923 37.749 17.4736C37.8718 17.3508 37.9495 17.1911 37.9823 16.9947L38.7313 17.1727C38.6781 17.3897 38.586 17.5882 38.455 17.7683C38.3281 17.9443 38.1603 18.0834 37.9516 18.1858C37.7428 18.2881 37.4932 18.3392 37.2026 18.3392Z" fill="white"/>
<path d="M39.3694 18.2533V13.9556H40.143V16.3316H40.2535L41.2604 15.2081H42.2673L40.8613 16.6816L42.3164 18.2533H41.3218L40.2535 17.0438H40.143V18.2533H39.3694Z" fill="white"/>
<path d="M42.8349 18.2533V13.9556H43.6085V18.2533H42.8349Z" fill="white"/>
<path d="M44.4657 18.2533V15.2081H45.2393V18.2533H44.4657ZM44.8525 14.852C44.7134 14.852 44.5947 14.807 44.4964 14.7169C44.4023 14.6269 44.3552 14.5082 44.3552 14.3608C44.3552 14.2135 44.4023 14.0948 44.4964 14.0047C44.5947 13.9147 44.7134 13.8697 44.8525 13.8697C44.9958 13.8697 45.1145 13.9147 45.2086 14.0047C45.3028 14.0948 45.3498 14.2135 45.3498 14.3608C45.3498 14.5082 45.3028 14.6269 45.2086 14.7169C45.1145 14.807 44.9958 14.852 44.8525 14.852Z" fill="white"/>
<path d="M46.0965 18.2533V15.2081H46.8578V15.5396H46.9684C47.0216 15.4373 47.1096 15.3493 47.2324 15.2756C47.3551 15.1978 47.5168 15.159 47.7174 15.159C47.9343 15.159 48.1083 15.2019 48.2392 15.2879C48.3702 15.3698 48.4705 15.4782 48.5401 15.6133H48.6506C48.7202 15.4823 48.8184 15.3738 48.9453 15.2879C49.0722 15.2019 49.2523 15.159 49.4856 15.159C49.6738 15.159 49.8437 15.1999 49.9951 15.2818C50.1507 15.3595 50.2735 15.4803 50.3635 15.644C50.4577 15.8036 50.5047 16.0062 50.5047 16.2518V18.2533H49.7311V16.3071C49.7311 16.1392 49.6882 16.0144 49.6022 15.9325C49.5163 15.8466 49.3955 15.8036 49.24 15.8036C49.064 15.8036 48.9269 15.8609 48.8286 15.9755C48.7345 16.086 48.6874 16.2457 48.6874 16.4544V18.2533H47.9138V16.3071C47.9138 16.1392 47.8709 16.0144 47.7849 15.9325C47.699 15.8466 47.5782 15.8036 47.4227 15.8036C47.2467 15.8036 47.1096 15.8609 47.0113 15.9755C46.9172 16.086 46.8701 16.2457 46.8701 16.4544V18.2533H46.0965Z" fill="white"/>
<path d="M51.3367 18.2533V15.2081H52.1103V18.2533H51.3367ZM51.7235 14.852C51.5844 14.852 51.4657 14.807 51.3674 14.7169C51.2733 14.6269 51.2262 14.5082 51.2262 14.3608C51.2262 14.2135 51.2733 14.0948 51.3674 14.0047C51.4657 13.9147 51.5844 13.8697 51.7235 13.8697C51.8668 13.8697 51.9855 13.9147 52.0796 14.0047C52.1738 14.0948 52.2208 14.2135 52.2208 14.3608C52.2208 14.5082 52.1738 14.6269 52.0796 14.7169C51.9855 14.807 51.8668 14.852 51.7235 14.852Z" fill="white"/>
<path d="M54.1341 18.2533C53.9335 18.2533 53.7698 18.1919 53.6429 18.0691C53.5201 17.9422 53.4587 17.7744 53.4587 17.5657V15.8466H52.6974V15.2081H53.4587V14.2626H54.2323V15.2081H55.0673V15.8466H54.2323V17.4306C54.2323 17.5534 54.2896 17.6148 54.4042 17.6148H54.9936V18.2533H54.1341Z" fill="white"/>
<path d="M57.0471 18.3392C56.7442 18.3392 56.4761 18.2758 56.2428 18.1489C56.0136 18.0179 55.8335 17.8358 55.7026 17.6025C55.5757 17.3651 55.5122 17.0868 55.5122 16.7675V16.6938C55.5122 16.3746 55.5757 16.0983 55.7026 15.865C55.8294 15.6276 56.0075 15.4455 56.2367 15.3186C56.4659 15.1876 56.732 15.1221 57.0348 15.1221C57.3336 15.1221 57.5935 15.1897 57.8146 15.3247C58.0356 15.4557 58.2075 15.6399 58.3303 15.8773C58.4531 16.1106 58.5145 16.3828 58.5145 16.6938V16.9578H56.2981C56.3063 17.1666 56.3841 17.3365 56.5314 17.4674C56.6788 17.5984 56.8588 17.6639 57.0717 17.6639C57.2886 17.6639 57.4482 17.6168 57.5506 17.5227C57.6529 17.4285 57.7307 17.3242 57.7839 17.2096L58.4162 17.5411C58.3589 17.6475 58.275 17.7642 58.1645 17.8911C58.0581 18.0138 57.9148 18.1203 57.7347 18.2103C57.5547 18.2963 57.3254 18.3392 57.0471 18.3392ZM56.3042 16.3807H57.7286C57.7122 16.2047 57.6406 16.0635 57.5137 15.9571C57.3909 15.8507 57.2293 15.7975 57.0287 15.7975C56.82 15.7975 56.6542 15.8507 56.5314 15.9571C56.4086 16.0635 56.3329 16.2047 56.3042 16.3807Z" fill="white"/>
<path d="M60.4309 18.3392C60.1894 18.3392 59.9623 18.2799 59.7494 18.1612C59.5407 18.0384 59.3729 17.8604 59.246 17.6271C59.1191 17.3938 59.0557 17.1113 59.0557 16.7798V16.6816C59.0557 16.35 59.1191 16.0676 59.246 15.8343C59.3729 15.601 59.5407 15.425 59.7494 15.3063C59.9582 15.1835 60.1853 15.1221 60.4309 15.1221C60.6151 15.1221 60.7686 15.1446 60.8914 15.1897C61.0183 15.2306 61.1206 15.2838 61.1984 15.3493C61.2761 15.4148 61.3355 15.4844 61.3764 15.558H61.4869V13.9556H62.2605V18.2533H61.4992V17.8849H61.3887C61.3191 17.9995 61.2106 18.1039 61.0633 18.198C60.92 18.2922 60.7092 18.3392 60.4309 18.3392ZM60.6642 17.6639C60.9016 17.6639 61.1001 17.5882 61.2598 17.4367C61.4194 17.2812 61.4992 17.0561 61.4992 16.7614V16.7C61.4992 16.4053 61.4194 16.1822 61.2598 16.0308C61.1042 15.8752 60.9057 15.7975 60.6642 15.7975C60.4268 15.7975 60.2283 15.8752 60.0687 16.0308C59.9091 16.1822 59.8292 16.4053 59.8292 16.7V16.7614C59.8292 17.0561 59.9091 17.2812 60.0687 17.4367C60.2283 17.5882 60.4268 17.6639 60.6642 17.6639Z" fill="white"/>
<path d="M65.0342 21.7889L15.736 22.8422V23.4793L65.0058 24.4475C66.425 24.4758 67.5666 25.6112 67.6486 27.0492L68.2888 38.0145H69.0394L70.0139 26.9136C70.1242 25.5291 71.2091 24.4506 72.5462 24.3938L87.0121 23.618V22.7886L72.5179 21.874C71.1839 21.792 70.1242 20.7387 69.9855 19.3543L69.1498 9.80181H68.2604L67.677 19.1871C67.5666 20.6283 66.425 21.7605 65.0342 21.7889Z" stroke="white" stroke-width="0.252812" stroke-miterlimit="10"/>
<path d="M18.1468 33.0979V32.5821C18.1468 32.2834 18.196 32.0357 18.2942 31.8393C18.3924 31.6387 18.5336 31.475 18.7178 31.3481C18.9061 31.2171 19.1353 31.1107 19.4054 31.0288L19.8168 30.8999C19.9682 30.8508 20.0951 30.7914 20.1974 30.7219C20.2998 30.6482 20.3775 30.5602 20.4307 30.4579C20.4881 30.3555 20.5167 30.2389 20.5167 30.1079V30.0834C20.5167 29.8787 20.4471 29.717 20.308 29.5983C20.1688 29.4755 19.9785 29.4141 19.737 29.4141C19.4996 29.4141 19.3072 29.4796 19.1599 29.6106C19.0166 29.7375 18.945 29.9217 18.945 30.1632V30.2737H18.1591V30.1754C18.1591 29.8644 18.2287 29.6004 18.3679 29.3834C18.507 29.1665 18.6953 29.0007 18.9327 28.8861C19.1742 28.7715 19.4423 28.7142 19.737 28.7142C20.0317 28.7142 20.2977 28.7715 20.5351 28.8861C20.7725 28.9967 20.9587 29.1542 21.0938 29.3589C21.233 29.5594 21.3026 29.7968 21.3026 30.0711V30.1325C21.3026 30.4067 21.2453 30.64 21.1307 30.8324C21.0201 31.0207 20.8687 31.1762 20.6763 31.299C20.484 31.4177 20.265 31.5159 20.0194 31.5937L19.6265 31.7165C19.4505 31.7697 19.3134 31.829 19.2151 31.8945C19.1169 31.9559 19.0473 32.0255 19.0064 32.1033C18.9695 32.1769 18.9511 32.267 18.9511 32.3734V32.398H21.2657V33.0979H18.1468Z" stroke="white" stroke-width="0.252812" stroke-miterlimit="10"/>
<path d="M23.5235 33.1838C23.016 33.1838 22.6087 33.0447 22.3018 32.7663C21.9948 32.4839 21.8413 32.0582 21.8413 31.4893V30.4087C21.8413 29.8562 21.9948 29.4367 22.3018 29.1501C22.6087 28.8595 23.016 28.7142 23.5235 28.7142C24.0352 28.7142 24.4424 28.8595 24.7453 29.1501C25.0523 29.4367 25.2058 29.8562 25.2058 30.4087V31.4893C25.2058 32.0582 25.0523 32.4839 24.7453 32.7663C24.4424 33.0447 24.0352 33.1838 23.5235 33.1838ZM23.5235 32.4839C23.8305 32.4839 24.0556 32.4 24.1989 32.2322C24.3462 32.0644 24.4199 31.8249 24.4199 31.5139V30.3719C24.4199 30.0567 24.3381 29.8194 24.1743 29.6597C24.0147 29.496 23.7978 29.4141 23.5235 29.4141C23.2411 29.4141 23.0201 29.498 22.8605 29.6659C22.7049 29.8337 22.6272 30.069 22.6272 30.3719V31.5139C22.6272 31.8372 22.7008 32.0807 22.8482 32.2445C22.9996 32.4041 23.2247 32.4839 23.5235 32.4839Z" stroke="white" stroke-width="0.252812" stroke-miterlimit="10"/>
<path d="M25.7733 33.0979V32.5821C25.7733 32.2834 25.8224 32.0357 25.9206 31.8393C26.0189 31.6387 26.1601 31.475 26.3443 31.3481C26.5325 31.2171 26.7618 31.1107 27.0319 31.0288L27.4432 30.8999C27.5947 30.8508 27.7216 30.7914 27.8239 30.7219C27.9262 30.6482 28.004 30.5602 28.0572 30.4579C28.1145 30.3555 28.1432 30.2389 28.1432 30.1079V30.0834C28.1432 29.8787 28.0736 29.717 27.9344 29.5983C27.7952 29.4755 27.6049 29.4141 27.3634 29.4141C27.126 29.4141 26.9337 29.4796 26.7863 29.6106C26.6431 29.7375 26.5714 29.9217 26.5714 30.1632V30.2737H25.7856V30.1754C25.7856 29.8644 25.8552 29.6004 25.9943 29.3834C26.1335 29.1665 26.3218 29.0007 26.5592 28.8861C26.8006 28.7715 27.0687 28.7142 27.3634 28.7142C27.6581 28.7142 27.9242 28.7715 28.1616 28.8861C28.399 28.9967 28.5852 29.1542 28.7203 29.3589C28.8594 29.5594 28.929 29.7968 28.929 30.0711V30.1325C28.929 30.4067 28.8717 30.64 28.7571 30.8324C28.6466 31.0207 28.4952 31.1762 28.3028 31.299C28.1104 31.4177 27.8914 31.5159 27.6459 31.5937L27.2529 31.7165C27.0769 31.7697 26.9398 31.829 26.8416 31.8945C26.7433 31.9559 26.6738 32.0255 26.6328 32.1033C26.596 32.1769 26.5776 32.267 26.5776 32.3734V32.398H28.8922V33.0979H25.7733Z" stroke="white" stroke-width="0.252812" stroke-miterlimit="10"/>
<path d="M31.3305 33.0979V32.226H29.2185V31.3174L30.7043 28.8002H32.1163V31.5261H32.8285V32.226H32.1163V33.0979H31.3305ZM29.9675 31.5261H31.3305V29.3036H31.22L29.9675 31.4279V31.5261Z" stroke="white" stroke-width="0.252812" stroke-miterlimit="10"/>
<path d="M35.2498 33.1838C35.0861 33.1838 34.9469 33.1306 34.8323 33.0242C34.7218 32.9137 34.6666 32.7725 34.6666 32.6006C34.6666 32.4287 34.7218 32.2895 34.8323 32.1831C34.9469 32.0726 35.0861 32.0173 35.2498 32.0173C35.4176 32.0173 35.5568 32.0726 35.6673 32.1831C35.7778 32.2895 35.8331 32.4287 35.8331 32.6006C35.8331 32.7725 35.7778 32.9137 35.6673 33.0242C35.5568 33.1306 35.4176 33.1838 35.2498 33.1838Z" stroke="white" stroke-width="0.252812" stroke-miterlimit="10"/>
<path d="M37.8191 33.0979V32.3857H38.3839V29.5124H37.8191V28.8002H39.5873C40.1644 28.8002 40.6024 28.9475 40.9012 29.2422C41.204 29.5328 41.3555 29.9667 41.3555 30.5438V31.3542C41.3555 31.9314 41.204 32.3673 40.9012 32.662C40.6024 32.9526 40.1644 33.0979 39.5873 33.0979H37.8191ZM39.1944 32.3611H39.5996C39.927 32.3611 40.1665 32.2752 40.3179 32.1033C40.4693 31.9314 40.5451 31.6899 40.5451 31.3788V30.5193C40.5451 30.2041 40.4693 29.9626 40.3179 29.7948C40.1665 29.6229 39.927 29.5369 39.5996 29.5369H39.1944V32.3611Z" stroke="white" stroke-width="0.252812" stroke-miterlimit="10"/>
<path d="M43.443 33.1838C43.1401 33.1838 42.872 33.1204 42.6387 32.9935C42.4095 32.8625 42.2294 32.6804 42.0985 32.4471C41.9716 32.2097 41.9081 31.9314 41.9081 31.6121V31.5384C41.9081 31.2192 41.9716 30.9429 42.0985 30.7096C42.2253 30.4722 42.4034 30.29 42.6326 30.1632C42.8618 30.0322 43.1279 29.9667 43.4307 29.9667C43.7295 29.9667 43.9894 30.0342 44.2105 30.1693C44.4315 30.3003 44.6034 30.4845 44.7262 30.7219C44.849 30.9552 44.9104 31.2274 44.9104 31.5384V31.8024H42.694C42.7022 32.0112 42.7799 32.181 42.9273 32.312C43.0746 32.443 43.2547 32.5085 43.4676 32.5085C43.6845 32.5085 43.8441 32.4614 43.9465 32.3673C44.0488 32.2731 44.1266 32.1687 44.1798 32.0541L44.8121 32.3857C44.7548 32.4921 44.6709 32.6087 44.5604 32.7356C44.454 32.8584 44.3107 32.9648 44.1306 33.0549C43.9506 33.1408 43.7213 33.1838 43.443 33.1838ZM42.7001 31.2253H44.1245C44.1081 31.0493 44.0365 30.9081 43.9096 30.8017C43.7868 30.6953 43.6252 30.642 43.4246 30.642C43.2159 30.642 43.0501 30.6953 42.9273 30.8017C42.8045 30.9081 42.7288 31.0493 42.7001 31.2253Z" stroke="white" stroke-width="0.252812" stroke-miterlimit="10"/>
<path d="M46.8637 33.1838C46.4666 33.1838 46.1412 33.0979 45.8875 32.926C45.6337 32.754 45.4802 32.5085 45.427 32.1892L46.1392 32.005C46.1678 32.1483 46.2149 32.2608 46.2804 32.3427C46.35 32.4246 46.4339 32.4839 46.5321 32.5207C46.6344 32.5535 46.745 32.5699 46.8637 32.5699C47.0437 32.5699 47.1768 32.5392 47.2627 32.4778C47.3487 32.4123 47.3917 32.3325 47.3917 32.2383C47.3917 32.1442 47.3507 32.0726 47.2689 32.0234C47.187 31.9702 47.056 31.9273 46.8759 31.8945L46.704 31.8638C46.4912 31.8229 46.2968 31.7676 46.1208 31.698C45.9448 31.6244 45.8036 31.5241 45.6971 31.3972C45.5907 31.2703 45.5375 31.1066 45.5375 30.906C45.5375 30.6032 45.648 30.3719 45.869 30.2123C46.0901 30.0486 46.3807 29.9667 46.7409 29.9667C47.0806 29.9667 47.363 30.0424 47.5881 30.1939C47.8132 30.3453 47.9606 30.5438 48.0302 30.7894L47.3118 31.0104C47.2791 30.8549 47.2116 30.7444 47.1092 30.6789C47.011 30.6134 46.8882 30.5807 46.7409 30.5807C46.5935 30.5807 46.4809 30.6073 46.4032 30.6605C46.3254 30.7096 46.2865 30.7792 46.2865 30.8692C46.2865 30.9674 46.3275 31.0411 46.4093 31.0902C46.4912 31.1353 46.6017 31.17 46.7409 31.1946L46.9128 31.2253C47.142 31.2662 47.3487 31.3215 47.5329 31.3911C47.7211 31.4566 47.8685 31.5527 47.9749 31.6796C48.0854 31.8024 48.1407 31.9702 48.1407 32.1831C48.1407 32.5023 48.024 32.75 47.7907 32.926C47.5615 33.0979 47.2525 33.1838 46.8637 33.1838Z" stroke="white" stroke-width="0.252812" stroke-miterlimit="10"/>
<path d="M48.8186 33.0979V30.0527H49.5921V33.0979H48.8186ZM49.2054 29.6966C49.0662 29.6966 48.9475 29.6515 48.8493 29.5615C48.7551 29.4714 48.7081 29.3527 48.7081 29.2054C48.7081 29.058 48.7551 28.9394 48.8493 28.8493C48.9475 28.7593 49.0662 28.7142 49.2054 28.7142C49.3486 28.7142 49.4673 28.7593 49.5614 28.8493C49.6556 28.9394 49.7027 29.058 49.7027 29.2054C49.7027 29.3527 49.6556 29.4714 49.5614 29.5615C49.4673 29.6515 49.3486 29.6966 49.2054 29.6966Z" stroke="white" stroke-width="0.252812" stroke-miterlimit="10"/>
<path d="M50.302 31.5875V31.4893C50.302 31.17 50.3655 30.8979 50.4924 30.6727C50.6192 30.4435 50.7871 30.2696 50.9958 30.1509C51.2086 30.0281 51.4399 29.9667 51.6896 29.9667C51.9679 29.9667 52.1787 30.0158 52.3219 30.114C52.4652 30.2123 52.5696 30.3146 52.6351 30.421H52.7456V30.0527H53.5069V33.6381C53.5069 33.8469 53.4455 34.0127 53.3227 34.1354C53.1999 34.2623 53.0362 34.3258 52.8315 34.3258H50.7932V33.6504H52.5614C52.676 33.6504 52.7333 33.589 52.7333 33.4662V32.6742H52.6228C52.5818 32.7397 52.5245 32.8073 52.4509 32.8768C52.3772 32.9423 52.279 32.9976 52.1562 33.0426C52.0334 33.0876 51.8778 33.1101 51.6896 33.1101C51.4399 33.1101 51.2086 33.0508 50.9958 32.9321C50.7871 32.8093 50.6192 32.6354 50.4924 32.4102C50.3655 32.181 50.302 31.9068 50.302 31.5875ZM51.9106 32.4348C52.148 32.4348 52.3465 32.3591 52.5061 32.2076C52.6657 32.0562 52.7456 31.8434 52.7456 31.5691V31.5077C52.7456 31.2294 52.6657 31.0166 52.5061 30.8692C52.3506 30.7178 52.1521 30.642 51.9106 30.642C51.6732 30.642 51.4747 30.7178 51.3151 30.8692C51.1554 31.0166 51.0756 31.2294 51.0756 31.5077V31.5691C51.0756 31.8434 51.1554 32.0562 51.3151 32.2076C51.4747 32.3591 51.6732 32.4348 51.9106 32.4348Z" stroke="white" stroke-width="0.252812" stroke-miterlimit="10"/>
<path d="M54.3645 33.0979V30.0527H55.1258V30.4517H55.2363C55.2855 30.3453 55.3776 30.245 55.5126 30.1509C55.6477 30.0527 55.8523 30.0035 56.1266 30.0035C56.364 30.0035 56.5707 30.0588 56.7467 30.1693C56.9268 30.2757 57.0659 30.4251 57.1642 30.6175C57.2624 30.8058 57.3115 31.0268 57.3115 31.2806V33.0979H56.5379V31.342C56.5379 31.1127 56.4806 30.9408 56.366 30.8262C56.2555 30.7116 56.0959 30.6543 55.8871 30.6543C55.6497 30.6543 55.4656 30.7341 55.3346 30.8938C55.2036 31.0493 55.1381 31.2683 55.1381 31.5507V33.0979H54.3645Z" stroke="white" stroke-width="0.252812" stroke-miterlimit="10"/>
<path d="M19.4853 18.2533C19.2847 18.2533 19.121 18.1919 18.9941 18.0691C18.8713 17.9422 18.8099 17.7744 18.8099 17.5657V15.8466H18.0486V15.2081H18.8099V14.2626H19.5835V15.2081H20.4185V15.8466H19.5835V17.4306C19.5835 17.5534 19.6408 17.6148 19.7554 17.6148H20.3448V18.2533H19.4853Z" stroke="white" stroke-width="0.252812" stroke-miterlimit="10"/>
<path d="M21.1187 18.2533V13.9556H21.8923V15.5826H22.0028C22.0355 15.5171 22.0867 15.4516 22.1563 15.3861C22.2259 15.3206 22.318 15.2674 22.4326 15.2265C22.5513 15.1815 22.7007 15.159 22.8808 15.159C23.1182 15.159 23.3249 15.2142 23.5009 15.3247C23.6809 15.4311 23.8201 15.5805 23.9183 15.7729C24.0166 15.9612 24.0657 16.1822 24.0657 16.436V18.2533H23.2921V16.4974C23.2921 16.2682 23.2348 16.0963 23.1202 15.9817C23.0097 15.8671 22.8501 15.8098 22.6413 15.8098C22.4039 15.8098 22.2197 15.8896 22.0888 16.0492C21.9578 16.2047 21.8923 16.4237 21.8923 16.7061V18.2533H21.1187Z" stroke="white" stroke-width="0.252812" stroke-miterlimit="10"/>
<path d="M26.2895 18.3392C25.9866 18.3392 25.7185 18.2758 25.4852 18.1489C25.256 18.0179 25.0759 17.8358 24.9449 17.6025C24.8181 17.3651 24.7546 17.0868 24.7546 16.7675V16.6938C24.7546 16.3746 24.8181 16.0983 24.9449 15.865C25.0718 15.6276 25.2499 15.4455 25.4791 15.3186C25.7083 15.1876 25.9743 15.1221 26.2772 15.1221C26.576 15.1221 26.8359 15.1897 27.0569 15.3247C27.278 15.4557 27.4499 15.6399 27.5727 15.8773C27.6954 16.1106 27.7568 16.3828 27.7568 16.6938V16.9578H25.5405C25.5487 17.1666 25.6264 17.3365 25.7738 17.4674C25.9211 17.5984 26.1012 17.6639 26.3141 17.6639C26.531 17.6639 26.6906 17.6168 26.7929 17.5227C26.8953 17.4285 26.973 17.3242 27.0262 17.2096L27.6586 17.5411C27.6013 17.6475 27.5174 17.7642 27.4069 17.8911C27.3005 18.0138 27.1572 18.1203 26.9771 18.2103C26.797 18.2963 26.5678 18.3392 26.2895 18.3392ZM25.5466 16.3807H26.971C26.9546 16.2047 26.883 16.0635 26.7561 15.9571C26.6333 15.8507 26.4716 15.7975 26.2711 15.7975C26.0623 15.7975 25.8966 15.8507 25.7738 15.9571C25.651 16.0635 25.5753 16.2047 25.5466 16.3807Z" stroke="white" stroke-width="0.252812" stroke-miterlimit="10"/>
<path d="M28.4454 18.2533V13.9556H29.219V15.5826H29.3295C29.3622 15.5171 29.4134 15.4516 29.483 15.3861C29.5525 15.3206 29.6446 15.2674 29.7592 15.2265C29.8779 15.1815 30.0273 15.159 30.2074 15.159C30.4448 15.159 30.6515 15.2142 30.8275 15.3247C31.0076 15.4311 31.1468 15.5805 31.245 15.7729C31.3432 15.9612 31.3924 16.1822 31.3924 16.436V18.2533H30.6188V16.4974C30.6188 16.2682 30.5615 16.0963 30.4469 15.9817C30.3364 15.8671 30.1767 15.8098 29.968 15.8098C29.7306 15.8098 29.5464 15.8896 29.4154 16.0492C29.2845 16.2047 29.219 16.4237 29.219 16.7061V18.2533H28.4454Z" stroke="white" stroke-width="0.252812" stroke-miterlimit="10"/>
<path d="M33.6162 18.3392C33.3133 18.3392 33.0452 18.2758 32.8119 18.1489C32.5827 18.0179 32.4026 17.8358 32.2716 17.6025C32.1447 17.3651 32.0813 17.0868 32.0813 16.7675V16.6938C32.0813 16.3746 32.1447 16.0983 32.2716 15.865C32.3985 15.6276 32.5765 15.4455 32.8057 15.3186C33.035 15.1876 33.301 15.1221 33.6039 15.1221C33.9027 15.1221 34.1626 15.1897 34.3836 15.3247C34.6046 15.4557 34.7765 15.6399 34.8993 15.8773C35.0221 16.1106 35.0835 16.3828 35.0835 16.6938V16.9578H32.8671C32.8753 17.1666 32.9531 17.3365 33.1004 17.4674C33.2478 17.5984 33.4279 17.6639 33.6407 17.6639C33.8577 17.6639 34.0173 17.6168 34.1196 17.5227C34.2219 17.4285 34.2997 17.3242 34.3529 17.2096L34.9853 17.5411C34.928 17.6475 34.8441 17.7642 34.7336 17.8911C34.6271 18.0138 34.4839 18.1203 34.3038 18.2103C34.1237 18.2963 33.8945 18.3392 33.6162 18.3392ZM32.8733 16.3807H34.2977C34.2813 16.2047 34.2097 16.0635 34.0828 15.9571C33.96 15.8507 33.7983 15.7975 33.5977 15.7975C33.389 15.7975 33.2232 15.8507 33.1004 15.9571C32.9777 16.0635 32.9019 16.2047 32.8733 16.3807Z" stroke="white" stroke-width="0.252812" stroke-miterlimit="10"/>
<path d="M37.2026 18.3392C36.9079 18.3392 36.6398 18.2778 36.3983 18.1551C36.1609 18.0323 35.9726 17.8542 35.8334 17.6209C35.6943 17.3876 35.6247 17.1052 35.6247 16.7737V16.6877C35.6247 16.3562 35.6943 16.0738 35.8334 15.8405C35.9726 15.6072 36.1609 15.4291 36.3983 15.3063C36.6398 15.1835 36.9079 15.1221 37.2026 15.1221C37.4932 15.1221 37.7428 15.1733 37.9516 15.2756C38.1603 15.3779 38.3281 15.5191 38.455 15.6992C38.586 15.8752 38.672 16.0758 38.7129 16.3009L37.9639 16.4605C37.9475 16.3378 37.9107 16.2272 37.8534 16.129C37.7961 16.0308 37.7142 15.953 37.6078 15.8957C37.5054 15.8384 37.3765 15.8098 37.221 15.8098C37.0654 15.8098 36.9242 15.8445 36.7974 15.9141C36.6746 15.9796 36.5763 16.0799 36.5027 16.215C36.4331 16.3459 36.3983 16.5076 36.3983 16.7V16.7614C36.3983 16.9538 36.4331 17.1175 36.5027 17.2525C36.5763 17.3835 36.6746 17.4838 36.7974 17.5534C36.9242 17.6189 37.0654 17.6516 37.221 17.6516C37.4543 17.6516 37.6303 17.5923 37.749 17.4736C37.8718 17.3508 37.9495 17.1911 37.9823 16.9947L38.7313 17.1727C38.6781 17.3897 38.586 17.5882 38.455 17.7683C38.3281 17.9443 38.1603 18.0834 37.9516 18.1858C37.7428 18.2881 37.4932 18.3392 37.2026 18.3392Z" stroke="white" stroke-width="0.252812" stroke-miterlimit="10"/>
<path d="M39.3694 18.2533V13.9556H40.143V16.3316H40.2535L41.2604 15.2081H42.2673L40.8613 16.6816L42.3164 18.2533H41.3218L40.2535 17.0438H40.143V18.2533H39.3694Z" stroke="white" stroke-width="0.252812" stroke-miterlimit="10"/>
<path d="M42.8349 18.2533V13.9556H43.6085V18.2533H42.8349Z" stroke="white" stroke-width="0.252812" stroke-miterlimit="10"/>
<path d="M44.4657 18.2533V15.2081H45.2393V18.2533H44.4657ZM44.8525 14.852C44.7134 14.852 44.5947 14.807 44.4964 14.7169C44.4023 14.6269 44.3552 14.5082 44.3552 14.3608C44.3552 14.2135 44.4023 14.0948 44.4964 14.0047C44.5947 13.9147 44.7134 13.8697 44.8525 13.8697C44.9958 13.8697 45.1145 13.9147 45.2086 14.0047C45.3028 14.0948 45.3498 14.2135 45.3498 14.3608C45.3498 14.5082 45.3028 14.6269 45.2086 14.7169C45.1145 14.807 44.9958 14.852 44.8525 14.852Z" stroke="white" stroke-width="0.252812" stroke-miterlimit="10"/>
<path d="M46.0965 18.2533V15.2081H46.8578V15.5396H46.9684C47.0216 15.4373 47.1096 15.3493 47.2324 15.2756C47.3551 15.1978 47.5168 15.159 47.7174 15.159C47.9343 15.159 48.1083 15.2019 48.2392 15.2879C48.3702 15.3698 48.4705 15.4782 48.5401 15.6133H48.6506C48.7202 15.4823 48.8184 15.3738 48.9453 15.2879C49.0722 15.2019 49.2523 15.159 49.4856 15.159C49.6738 15.159 49.8437 15.1999 49.9951 15.2818C50.1507 15.3595 50.2735 15.4803 50.3635 15.644C50.4577 15.8036 50.5047 16.0062 50.5047 16.2518V18.2533H49.7311V16.3071C49.7311 16.1392 49.6882 16.0144 49.6022 15.9325C49.5163 15.8466 49.3955 15.8036 49.24 15.8036C49.064 15.8036 48.9269 15.8609 48.8286 15.9755C48.7345 16.086 48.6874 16.2457 48.6874 16.4544V18.2533H47.9138V16.3071C47.9138 16.1392 47.8709 16.0144 47.7849 15.9325C47.699 15.8466 47.5782 15.8036 47.4227 15.8036C47.2467 15.8036 47.1096 15.8609 47.0113 15.9755C46.9172 16.086 46.8701 16.2457 46.8701 16.4544V18.2533H46.0965Z" stroke="white" stroke-width="0.252812" stroke-miterlimit="10"/>
<path d="M51.3367 18.2533V15.2081H52.1103V18.2533H51.3367ZM51.7235 14.852C51.5844 14.852 51.4657 14.807 51.3674 14.7169C51.2733 14.6269 51.2262 14.5082 51.2262 14.3608C51.2262 14.2135 51.2733 14.0948 51.3674 14.0047C51.4657 13.9147 51.5844 13.8697 51.7235 13.8697C51.8668 13.8697 51.9855 13.9147 52.0796 14.0047C52.1738 14.0948 52.2208 14.2135 52.2208 14.3608C52.2208 14.5082 52.1738 14.6269 52.0796 14.7169C51.9855 14.807 51.8668 14.852 51.7235 14.852Z" stroke="white" stroke-width="0.252812" stroke-miterlimit="10"/>
<path d="M54.1341 18.2533C53.9335 18.2533 53.7698 18.1919 53.6429 18.0691C53.5201 17.9422 53.4587 17.7744 53.4587 17.5657V15.8466H52.6974V15.2081H53.4587V14.2626H54.2323V15.2081H55.0673V15.8466H54.2323V17.4306C54.2323 17.5534 54.2896 17.6148 54.4042 17.6148H54.9936V18.2533H54.1341Z" stroke="white" stroke-width="0.252812" stroke-miterlimit="10"/>
<path d="M57.0471 18.3392C56.7442 18.3392 56.4761 18.2758 56.2428 18.1489C56.0136 18.0179 55.8335 17.8358 55.7026 17.6025C55.5757 17.3651 55.5122 17.0868 55.5122 16.7675V16.6938C55.5122 16.3746 55.5757 16.0983 55.7026 15.865C55.8294 15.6276 56.0075 15.4455 56.2367 15.3186C56.4659 15.1876 56.732 15.1221 57.0348 15.1221C57.3336 15.1221 57.5935 15.1897 57.8146 15.3247C58.0356 15.4557 58.2075 15.6399 58.3303 15.8773C58.4531 16.1106 58.5145 16.3828 58.5145 16.6938V16.9578H56.2981C56.3063 17.1666 56.3841 17.3365 56.5314 17.4674C56.6788 17.5984 56.8588 17.6639 57.0717 17.6639C57.2886 17.6639 57.4482 17.6168 57.5506 17.5227C57.6529 17.4285 57.7307 17.3242 57.7839 17.2096L58.4162 17.5411C58.3589 17.6475 58.275 17.7642 58.1645 17.8911C58.0581 18.0138 57.9148 18.1203 57.7347 18.2103C57.5547 18.2963 57.3254 18.3392 57.0471 18.3392ZM56.3042 16.3807H57.7286C57.7122 16.2047 57.6406 16.0635 57.5137 15.9571C57.3909 15.8507 57.2293 15.7975 57.0287 15.7975C56.82 15.7975 56.6542 15.8507 56.5314 15.9571C56.4086 16.0635 56.3329 16.2047 56.3042 16.3807Z" stroke="white" stroke-width="0.252812" stroke-miterlimit="10"/>
<path d="M60.4309 18.3392C60.1894 18.3392 59.9623 18.2799 59.7494 18.1612C59.5407 18.0384 59.3729 17.8604 59.246 17.6271C59.1191 17.3938 59.0557 17.1113 59.0557 16.7798V16.6816C59.0557 16.35 59.1191 16.0676 59.246 15.8343C59.3729 15.601 59.5407 15.425 59.7494 15.3063C59.9582 15.1835 60.1853 15.1221 60.4309 15.1221C60.6151 15.1221 60.7686 15.1446 60.8914 15.1897C61.0183 15.2306 61.1206 15.2838 61.1984 15.3493C61.2761 15.4148 61.3355 15.4844 61.3764 15.558H61.4869V13.9556H62.2605V18.2533H61.4992V17.8849H61.3887C61.3191 17.9995 61.2106 18.1039 61.0633 18.198C60.92 18.2922 60.7092 18.3392 60.4309 18.3392ZM60.6642 17.6639C60.9016 17.6639 61.1001 17.5882 61.2598 17.4367C61.4194 17.2812 61.4992 17.0561 61.4992 16.7614V16.7C61.4992 16.4053 61.4194 16.1822 61.2598 16.0308C61.1042 15.8752 60.9057 15.7975 60.6642 15.7975C60.4268 15.7975 60.2283 15.8752 60.0687 16.0308C59.9091 16.1822 59.8292 16.4053 59.8292 16.7V16.7614C59.8292 17.0561 59.9091 17.2812 60.0687 17.4367C60.2283 17.5882 60.4268 17.6639 60.6642 17.6639Z" stroke="white" stroke-width="0.252812" stroke-miterlimit="10"/>
<path d="M23 45C10.871 45 1 35.1322 1 23C1 10.8678 10.8678 1 23 1H74.3828C86.5118 1 96.3827 10.8678 96.3827 23C96.3827 35.1322 86.5149 45 74.3828 45H23Z" stroke="white" stroke-width="0.252812" stroke-miterlimit="10"/>
<path d="M75.281 4.31086H22.0944C12.2728 4.31086 4.31086 12.2728 4.31086 22.0944V23.8983C4.31086 33.7199 12.2728 41.6818 22.0944 41.6818H75.281C85.1026 41.6818 93.0646 33.7199 93.0646 23.8983V22.0944C93.0646 12.2728 85.1026 4.31086 75.281 4.31086Z" stroke="white" stroke-width="0.252812" stroke-miterlimit="10"/>
</svg>
